<svg width="176" height="32" viewBox="0 0 176 32" fill="none" xmlns="http://www.w3.org/2000/svg">
<path opacity="0.5" d="M20 9.99988V31.8888C29.8889 26.4443 38.2223 29.9999 40 31.9999V9.99987C33 5.99986 21.8148 6.62951 20 9.99988Z" fill="#DBE5FF"/>
<path d="M20 10.0001V31.889C26.3333 23.6668 34.3334 25.6668 36.8889 26.1112V4.33343C31 2.44453 21.8148 6.62973 20 10.0001Z" fill="#F0F4FF"/>
<path d="M20 9.74947V31.5556C23.4089 23.6965 32.4261 22.9217 34.2222 23.0324V0.00865083C29.9996 -0.257008 20.8797 5.65389 20 9.74947Z" fill="url(#paint0_linear_98001_29220)"/>
<path opacity="0.5" d="M20 9.99988V31.8888C10.1111 26.4443 1.77775 29.9999 -3.43323e-05 31.9999V9.99987C6.99998 5.99986 18.1852 6.62951 20 9.99988Z" fill="#DBE5FF"/>
<path d="M20 10.0001V31.889C13.6667 23.6668 5.66664 25.6668 3.11108 26.1112V4.33343C8.99998 2.44453 18.1852 6.62973 20 10.0001Z" fill="#F0F4FF"/>
<path d="M20 9.74947V31.5556C16.5911 23.6965 7.57386 22.9217 5.77775 23.0324V0.00865083C10.0004 -0.257008 19.1203 5.65389 20 9.74947Z" fill="url(#paint1_linear_98001_29220)"/>
<path d="M48.296 7.456H57.34C58.1427 7.456 58.8613 7.57733 59.496 7.82C60.1493 8.06267 60.7 8.39867 61.148 8.828C61.596 9.25733 61.932 9.78933 62.156 10.424C62.3987 11.04 62.52 11.7213 62.52 12.468C62.52 13.2147 62.4173 13.8493 62.212 14.372C62.0253 14.876 61.764 15.296 61.428 15.632C61.1107 15.968 60.7373 16.22 60.308 16.388C59.8973 16.556 59.468 16.6493 59.02 16.668V16.836C59.4493 16.836 59.9067 16.92 60.392 17.088C60.896 17.256 61.3533 17.5267 61.764 17.9C62.1933 18.2547 62.548 18.7213 62.828 19.3C63.108 19.86 63.248 20.56 63.248 21.4C63.248 22.184 63.1173 22.9213 62.856 23.612C62.6133 24.284 62.268 24.872 61.82 25.376C61.372 25.88 60.84 26.2813 60.224 26.58C59.608 26.86 58.936 27 58.208 27H48.296V7.456ZM51.992 23.864H57.144C57.8533 23.864 58.404 23.6867 58.796 23.332C59.188 22.9587 59.384 22.4267 59.384 21.736V20.784C59.384 20.0933 59.188 19.5613 58.796 19.188C58.404 18.8147 57.8533 18.628 57.144 18.628H51.992V23.864ZM51.992 15.604H56.556C57.228 15.604 57.7507 15.4267 58.124 15.072C58.4973 14.6987 58.684 14.1853 58.684 13.532V12.664C58.684 12.0107 58.4973 11.5067 58.124 11.152C57.7507 10.7787 57.228 10.592 56.556 10.592H51.992V15.604ZM72.4344 27.336C71.3891 27.336 70.4464 27.1587 69.6064 26.804C68.7851 26.4493 68.0757 25.936 67.4784 25.264C66.8997 24.592 66.4517 23.7893 66.1344 22.856C65.8171 21.904 65.6584 20.84 65.6584 19.664C65.6584 18.488 65.8171 17.4333 66.1344 16.5C66.4517 15.5667 66.8997 14.7733 67.4784 14.12C68.0757 13.448 68.7851 12.9347 69.6064 12.58C70.4464 12.2253 71.3891 12.048 72.4344 12.048C73.4797 12.048 74.4224 12.2253 75.2624 12.58C76.1024 12.9347 76.8117 13.448 77.3904 14.12C77.9877 14.7733 78.4451 15.5667 78.7624 16.5C79.0797 17.4333 79.2384 18.488 79.2384 19.664C79.2384 20.84 79.0797 21.904 78.7624 22.856C78.4451 23.7893 77.9877 24.592 77.3904 25.264C76.8117 25.936 76.1024 26.4493 75.2624 26.804C74.4224 27.1587 73.4797 27.336 72.4344 27.336ZM72.4344 24.452C73.3864 24.452 74.1331 24.1627 74.6744 23.584C75.2157 23.0053 75.4864 22.156 75.4864 21.036V18.32C75.4864 17.2187 75.2157 16.3787 74.6744 15.8C74.1331 15.2213 73.3864 14.932 72.4344 14.932C71.5011 14.932 70.7637 15.2213 70.2224 15.8C69.6811 16.3787 69.4104 17.2187 69.4104 18.32V21.036C69.4104 22.156 69.6811 23.0053 70.2224 23.584C70.7637 24.1627 71.5011 24.452 72.4344 24.452ZM88.2118 27.336C87.1664 27.336 86.2238 27.1587 85.3838 26.804C84.5624 26.4493 83.8531 25.936 83.2558 25.264C82.6771 24.592 82.2291 23.7893 81.9118 22.856C81.5944 21.904 81.4358 20.84 81.4358 19.664C81.4358 18.488 81.5944 17.4333 81.9118 16.5C82.2291 15.5667 82.6771 14.7733 83.2558 14.12C83.8531 13.448 84.5624 12.9347 85.3838 12.58C86.2238 12.2253 87.1664 12.048 88.2118 12.048C89.2571 12.048 90.1998 12.2253 91.0398 12.58C91.8798 12.9347 92.5891 13.448 93.1678 14.12C93.7651 14.7733 94.2224 15.5667 94.5398 16.5C94.8571 17.4333 95.0158 18.488 95.0158 19.664C95.0158 20.84 94.8571 21.904 94.5398 22.856C94.2224 23.7893 93.7651 24.592 93.1678 25.264C92.5891 25.936 91.8798 26.4493 91.0398 26.804C90.1998 27.1587 89.2571 27.336 88.2118 27.336ZM88.2118 24.452C89.1638 24.452 89.9104 24.1627 90.4518 23.584C90.9931 23.0053 91.2638 22.156 91.2638 21.036V18.32C91.2638 17.2187 90.9931 16.3787 90.4518 15.8C89.9104 15.2213 89.1638 14.932 88.2118 14.932C87.2784 14.932 86.5411 15.2213 85.9998 15.8C85.4584 16.3787 85.1878 17.2187 85.1878 18.32V21.036C85.1878 22.156 85.4584 23.0053 85.9998 23.584C86.5411 24.1627 87.2784 24.452 88.2118 24.452ZM98.1931 6.28H101.777V18.768H101.917L103.849 16.136L107.125 12.384H111.185L106.145 18.04L111.717 27H107.461L103.709 20.448L101.777 22.548V27H98.1931V6.28ZM116.889 27L112.353 7.456H116.049L117.981 16.836L119.185 22.828H119.269L120.669 16.836L122.909 7.456H126.997L129.237 16.836L130.609 22.828H130.693L131.925 16.836L133.913 7.456H137.441L132.765 27H128.593L126.101 16.668L124.897 11.516H124.841L123.581 16.668L121.089 27H116.889ZM142.067 10.256C141.32 10.256 140.779 10.088 140.443 9.752C140.126 9.416 139.967 8.98667 139.967 8.464V7.904C139.967 7.38133 140.126 6.952 140.443 6.616C140.779 6.28 141.32 6.112 142.067 6.112C142.795 6.112 143.327 6.28 143.663 6.616C143.999 6.952 144.167 7.38133 144.167 7.904V8.464C144.167 8.98667 143.999 9.416 143.663 9.752C143.327 10.088 142.795 10.256 142.067 10.256ZM140.275 12.384H143.859V27H140.275V12.384ZM152.801 27.336C151.401 27.336 150.225 27.1027 149.273 26.636C148.321 26.1507 147.481 25.488 146.753 24.648L148.937 22.52C149.479 23.136 150.067 23.6213 150.701 23.976C151.355 24.3307 152.101 24.508 152.941 24.508C153.8 24.508 154.416 24.3587 154.789 24.06C155.181 23.7613 155.377 23.3507 155.377 22.828C155.377 22.3987 155.237 22.0627 154.957 21.82C154.696 21.5587 154.239 21.3813 153.585 21.288L152.129 21.092C150.543 20.8867 149.329 20.4387 148.489 19.748C147.668 19.0387 147.257 18.012 147.257 16.668C147.257 15.9587 147.388 15.324 147.649 14.764C147.911 14.1853 148.284 13.7 148.769 13.308C149.255 12.8973 149.833 12.5893 150.505 12.384C151.196 12.16 151.961 12.048 152.801 12.048C153.511 12.048 154.136 12.104 154.677 12.216C155.237 12.3093 155.741 12.4587 156.189 12.664C156.637 12.8507 157.048 13.0933 157.421 13.392C157.795 13.672 158.159 13.9893 158.513 14.344L156.413 16.444C155.984 15.996 155.471 15.6227 154.873 15.324C154.276 15.0253 153.623 14.876 152.913 14.876C152.129 14.876 151.56 15.016 151.205 15.296C150.869 15.576 150.701 15.94 150.701 16.388C150.701 16.8733 150.841 17.2467 151.121 17.508C151.42 17.7507 151.915 17.928 152.605 18.04L154.089 18.236C157.244 18.684 158.821 20.1213 158.821 22.548C158.821 23.2573 158.672 23.9107 158.373 24.508C158.093 25.0867 157.692 25.5907 157.169 26.02C156.647 26.4307 156.012 26.7573 155.265 27C154.537 27.224 153.716 27.336 152.801 27.336ZM167.894 27.336C166.811 27.336 165.841 27.1587 164.982 26.804C164.142 26.4307 163.423 25.9173 162.826 25.264C162.247 24.592 161.799 23.7893 161.482 22.856C161.165 21.904 161.006 20.84 161.006 19.664C161.006 18.5067 161.155 17.4613 161.454 16.528C161.771 15.5947 162.219 14.8013 162.798 14.148C163.377 13.476 164.086 12.9627 164.926 12.608C165.766 12.2347 166.718 12.048 167.782 12.048C168.921 12.048 169.91 12.244 170.75 12.636C171.59 13.028 172.281 13.56 172.822 14.232C173.363 14.904 173.765 15.688 174.026 16.584C174.306 17.4613 174.446 18.404 174.446 19.412V20.588H164.73V20.952C164.73 22.016 165.029 22.8747 165.626 23.528C166.223 24.1627 167.11 24.48 168.286 24.48C169.182 24.48 169.91 24.2933 170.47 23.92C171.049 23.5467 171.562 23.0707 172.01 22.492L173.942 24.648C173.345 25.488 172.523 26.1507 171.478 26.636C170.451 27.1027 169.257 27.336 167.894 27.336ZM167.838 14.736C166.886 14.736 166.13 15.0533 165.57 15.688C165.01 16.3227 164.73 17.144 164.73 18.152V18.376H170.722V18.124C170.722 17.116 170.47 16.304 169.966 15.688C169.481 15.0533 168.771 14.736 167.838 14.736Z" fill="white"/>
<defs>
<linearGradient id="paint0_linear_98001_29220" x1="20" y1="18.7778" x2="34.2222" y2="18.7778" gradientUnits="userSpaceOnUse">
<stop stop-color="#FAFBFF" stop-opacity="0.49"/>
<stop offset="1" stop-color="#FAFBFF"/>
</linearGradient>
<linearGradient id="paint1_linear_98001_29220" x1="20" y1="18.7778" x2="5.77775" y2="18.7778" gradientUnits="userSpaceOnUse">
<stop stop-color="#FAFBFF" stop-opacity="0.49"/>
<stop offset="1" stop-color="#FAFBFF"/>
</linearGradient>
</defs>
</svg>
